<mxfile host="app.diagrams.net" modified="2023-12-13T00:13:07.205Z" agent="Mozilla/5.0 (Windows NT 10.0; Win64; x64) AppleWebKit/537.36 (KHTML, like Gecko) Chrome/120.0.0.0 Safari/537.36 Edg/120.0.0.0" version="22.1.8" etag="3TB22eH47YPYH4b8y_V3" type="github">
  <diagram name="第 1 页" id="rPUfTxsaUfkT5mQgdhwO">
    <mxGraphModel>
      <root>
        <mxCell id="0" />
        <mxCell id="1" parent="0" />
      </root>
    </mxGraphModel>
  </diagram>
</mxfile>
